<svg height="368.961804" viewBox="0 0 164.78 224.2" width="271.030765" xmlns="http://www.w3.org/2000/svg"><g transform="translate(-216.3 -310.57)"><path d="m332.39 384.45v63.06c-.93 21.68-15.66 38.63-33.66 38.63s-32.73-16.95-33.67-38.64v-63.05h-33.47v64c1.46 39.87 30.94 71.09 67.14 71.09s65.66-31.22 67.14-71.07v-64z" fill="#00aeef"/><path d="m379.08 310.57h-162.71v131.62c-.05 1.28-.07 2.4-.07 3.43s0 2.19.07 3.48c1.74 48.08 37.9 85.67 82.36 85.67s80.64-37.62 82.35-85.65v-138.55zm-2 138.48c-1.63 45.79-36.05 81.72-78.35 81.72s-76.73-35.92-78.36-81.77v-134.43h156.71z" fill="#f08231"/><path d="m370.8 319.36h-145.65v129.2c1.56 43.44 33.85 77.44 73.58 77.44s72-34 73.57-77.36v-129.28zm-1.5 129.21c-1.51 41.7-32.51 74.41-70.57 74.41s-69.07-32.72-70.58-74.48v-126.14h141.15z" fill="#00aeef"/><path d="m248.4 395.34c0 20.87-.69 52.18-.69 52.66 1.17 31.67 24 56.47 51 56.47s49.84-24.79 51-56.46c0-.48-.69-31.8-.69-52.67" fill="none"/><g fill="#fff"><path d="m261.18 469.42a32.83 32.83 0 0 0 -.74 3.91c-.78-1.27-1.26-2.69-1.92-4l-15.71 6.8a36.17 36.17 0 0 1 .74-4.72l11.21-4.11a3.68 3.68 0 0 0 .71-.46 2.53 2.53 0 0 0 .87-1.67 4.91 4.91 0 0 0 -.18-2.24l-.18-.72-.26-1-16.54 4.41 1.13-2.85.5-.12c1.72-.39 3.51-1.93 5.8-4.35a8.1 8.1 0 0 0 1.34-2.57 11.75 11.75 0 0 0 .64-3.09 3 3 0 0 1 -1.79 1.29q-2.45.31-2.78-3.83c-.32-4.07 1.08-5.34 3.17-5.43a3.35 3.35 0 0 1 2.85 1.95 9.7 9.7 0 0 1 1.37 4.22 11.73 11.73 0 0 1 -2.7 8.37l-.09.12 6.3-1.31a59.87 59.87 0 0 1 -1.15-14.75l.07-.1v-2.27l-16.69-.32 2.36-3.58 8.87.17c.37 0 .74-.27 1.12-.83a3.21 3.21 0 0 0 .58-1.7 1.4 1.4 0 0 0 -.42-1.11c-.28-.27-.95-.28-2 0l-.67-2.78c.52.33.93.36 1.25.07a5.57 5.57 0 0 0 1.12-1.19 5.34 5.34 0 0 0 .84-3 4.84 4.84 0 0 0 -.69-2.68 2.08 2.08 0 0 0 -1.73-1.14c-.73 0-1.24.45-1.51 1.37l.59-.08a1.76 1.76 0 0 1 1.48 1 4.16 4.16 0 0 1 .59 2.32 3.38 3.38 0 0 1 -1.67 3.12c-.87.47-1.51.59-1.9.36-1.14-.8-1.7-2.21-1.67-4.24a10.1 10.1 0 0 1 1.36-5.29 3.94 3.94 0 0 1 3.52-2 4.24 4.24 0 0 1 3.16 1.5 6.17 6.17 0 0 1 1.55 4.39 8.44 8.44 0 0 1 -1.4 4.93l-.17.24a6.48 6.48 0 0 1 .93 1.37 4 4 0 0 1 .44 1.85 5.75 5.75 0 0 1 -.76 2.66l-.72.81-.09.19 2.38.05.27-16.7-.05.08.06-4.64-16.11-.21a12.75 12.75 0 0 1 -1 1.66q-1.76 2.94-3.65 3.55a.48.48 0 0 1 -.59-.16 1 1 0 0 1 -.25-.72 1.06 1.06 0 0 1 .33-.77 25.18 25.18 0 0 0 2.82-4.35 3.91 3.91 0 0 1 .73-1c.18-.19.28-.3.28-.34a15.77 15.77 0 0 1 -1.15-2.09 5.86 5.86 0 0 1 -.56-2.61 8.85 8.85 0 0 1 .57-3.22c.43-1.12 1-1.72 1.74-1.81a2.14 2.14 0 0 1 2.26 1.21 6.81 6.81 0 0 1 .87 3.63 8.9 8.9 0 0 1 -.73 3.23c1.12-.08 1.81-.12 2.08-.12a9 9 0 0 0 2.22-3.16 24.23 24.23 0 0 0 1.74-7.24l4.29-5.31a30.15 30.15 0 0 0 -.44 3.66 17.94 17.94 0 0 0 .41 3.81 11 11 0 0 0 1.15 3.37c.37.59.72.89 1.06.89s.59-.21.91-.63l-.69-1.13a16.42 16.42 0 0 1 -1-3.13 15.12 15.12 0 0 1 -.48-3.51 5.73 5.73 0 0 1 .73-3 2 2 0 0 1 1.71-1.24 2 2 0 0 1 1.49.83 3.74 3.74 0 0 1 .7 2.44c0 1.53-.48 2.46-1.42 2.78a24.89 24.89 0 0 0 2.5 4.65c-1.12 2-1.83 3.21-2.12 3.63-1 1.33-1.91 2-2.85 2-1.76 0-3.12-1.55-4.09-4.57a18.94 18.94 0 0 1 -3 5.19l15.12.16-1.09 2.73a2 2 0 0 0 -.94 0 1.88 1.88 0 0 0 -.91.28 5.83 5.83 0 0 0 -.17.76l-.42 25.91-.06.1-.11 5.55c.05.81.25 3 .35 4.46a62.55 62.55 0 0 0 1.9 9.53c.45 1.88.58 3.32 0 4.49l.46-.24a35.7 35.7 0 0 1 3.89-1.62l-.44 2a4.63 4.63 0 0 0 -1.37 1.14 2.38 2.38 0 0 0 -.21.58zm-23.28-58.89a2.87 2.87 0 0 0 .34-1.74c-.05-1.06-.2-1.59-.47-1.59s-.48.44-.41 1.34a7.36 7.36 0 0 0 .38 1.6z"/><path d="m354.17 410.57a3.61 3.61 0 0 0 .63 2.11 1.75 1.75 0 0 0 1.45.85 1.77 1.77 0 0 0 1.44-1 4.17 4.17 0 0 0 .6-2.29 3.57 3.57 0 0 0 -.65-2.13 1.57 1.57 0 0 0 -2.88.14 4.38 4.38 0 0 0 -.59 2.32z"/><path d="m343.08 395.34v4.81l16.81-.07-1.44 2.12a17.34 17.34 0 0 0 -2.08 1.7 10.82 10.82 0 0 0 -1.87 2.42 14 14 0 0 0 -1.51 3.54 23 23 0 0 0 -.35 4.21l-3.06 3.81a67.68 67.68 0 0 1 -4.1-7 11.69 11.69 0 0 0 -.82 4.12 7.83 7.83 0 0 1 -1.45 4.34v2.79l16.69-.24-2.23 3.65-8.87.13c-.37 0-.73.3-1.09.87a3.13 3.13 0 0 0 -.53 1.71 1.42 1.42 0 0 0 .46 1.1c.29.26 1 .25 2 0l.77 2.75q-.8-.46-1.26 0a5.72 5.72 0 0 0 -1.08 1.23 5.4 5.4 0 0 0 -.73 3.07 4.76 4.76 0 0 0 .78 2.65 2.06 2.06 0 0 0 1.77 1.08c.73 0 1.22-.48 1.46-1.42l-.59.11a1.81 1.81 0 0 1 -1.51-1 4.17 4.17 0 0 1 -.67-2.29 3.37 3.37 0 0 1 1.56-3.18q1.29-.75 1.89-.42c1.17.75 1.77 2.14 1.81 4.17a10 10 0 0 1 -1.18 5.34 3.93 3.93 0 0 1 -3.44 2.15 4.29 4.29 0 0 1 -3.22-1.39 6.21 6.21 0 0 1 -1.69-4.34 8.33 8.33 0 0 1 1.23-5l.16-.25a5.74 5.74 0 0 1 -1-1.34 3.86 3.86 0 0 1 -.51-1.84 5.82 5.82 0 0 1 .67-2.68l.69-.83.08-.2h-2.37l.29 16.47.06-.09.1 4.93 17.12-.34a25.48 25.48 0 0 1 -2.64 4.4l-11.91-.88a3.14 3.14 0 0 0 -.83.12 2.54 2.54 0 0 0 -1.48 1.16 5.48 5.48 0 0 0 -.76 2.13c0 .15-.07.39-.13.74a4.8 4.8 0 0 0 .18 1.36 2.19 2.19 0 0 0 1.08 1.47 3.71 3.71 0 0 0 .88.26 13.77 13.77 0 0 0 3.77.13 34.64 34.64 0 0 1 4.67-.31c1.81.29 3.25 2.16 3.61 5.71a12.82 12.82 0 0 1 -.21 3.93 2.06 2.06 0 0 1 -1.32 1.64h-.3c-.3-.1-.36-.57-.27-1.42l.12-1.73a17.85 17.85 0 0 0 -.44-2.19 3.4 3.4 0 0 0 -1.66-1.28 11.07 11.07 0 0 0 -3.06.22 11 11 0 0 1 -3.63 0 5.78 5.78 0 0 1 -3-2.11c-.35-.64-.7-1.23-1-1.79l-.89 3.43c-.16.58-.26 1.17-.47 1.73a58.62 58.62 0 0 1 -6.56 14l4.54 3 .08-.74c.08-1 0-2 0-2.93.11-1.91.43-4.25.78-7.05a41.64 41.64 0 0 0 3.86-3.44 17.34 17.34 0 0 0 4 4.76 8.25 8.25 0 0 0 3.16 1.59 15.54 15.54 0 0 0 3.45.49l.65.07a34.48 34.48 0 0 1 -2.1 2.84 19.4 19.4 0 0 1 -6.89-1.27 11.54 11.54 0 0 1 -2.85-2 19 19 0 0 0 1.09 10.9c-1.6.73-3.18 1.4-4.72 2l-7-5.26-1.2 1.48-1.57 1.89 12.77 11.41c-1.16.25-2.44.38-3.62.54a18.3 18.3 0 0 0 -8.34 1 41.33 41.33 0 0 0 -6 2.84 39.43 39.43 0 0 1 -4.87-1.07c3.21-4.22 5.72-8.31 8.12-12.14l-.27-.28a45.35 45.35 0 0 1 -9.05 6.96l-1.92 1a15.42 15.42 0 0 1 -2 1l6.75 15c-1.7-.1-3.36-.23-4.95-.4l-4.78-13.37-.57.2h.09l-4.09 1.16 1.61 7.15.09.39 1.94 8.62.5 2.28-3.53-.18c-2.15-1.87-5.15-2.8-9.27-2.71-.77-1.17-1.48-2.34-2.15-3.52a43.4 43.4 0 0 0 8.83-3.84l-.42-3.49c-.06-.45-.64-1-1.66-1.8s-1.79-1.23-2.39-1.15a2.27 2.27 0 0 0 -1.63.77c1.21.64 2 1.05 2.28 1.25a2.47 2.47 0 0 1 1.25 1.82 1.68 1.68 0 0 1 -.38 1.32l.14-.09a2.69 2.69 0 0 1 -1.41 1 6.27 6.27 0 0 1 -2 .44 5.17 5.17 0 0 1 -3.59-1.51 4.68 4.68 0 0 1 -4.15 1c-1.72-.3-2.76-1.09-3-2.52a2.15 2.15 0 0 1 0-.73c.27-1.07 1.29-1.76 3-2.43.29-.11.74-.26 1.32-.45a9.38 9.38 0 0 0 -.66-1 4 4 0 0 0 -1.56-.74c-.28 0-1.11-.28-2.54-.66l-.06-.08a16.71 16.71 0 0 1 -2.18-.69l-5.88 16.08c-.67-1.08-1.31-2.14-1.91-3.2a18.8 18.8 0 0 0 -4-7.45 33.07 33.07 0 0 0 -4.76-4.7c-.29-1.69-.52-3.34-.7-4.93 5.1 1.53 9.86 2.42 14.17 3.35l.16-.35a43.58 43.58 0 0 1 -9.5-6l-1.7-1.41c-.57-.49-1.07-1.06-1.61-1.58l-11.57 11.67a47.35 47.35 0 0 1 -1.36-4.66l10.65-9.39-1.82-2.19a32.9 32.9 0 0 1 .05-4 41.41 41.41 0 0 0 3.29 4.27v-1.15a1.27 1.27 0 0 1 .49-1 2.53 2.53 0 0 1 1.45-.64 13.65 13.65 0 0 1 2.73.12 11.38 11.38 0 0 1 2.84.83 10.66 10.66 0 0 1 2.1 1.28 26.6 26.6 0 0 1 4.8 6c.51.77 1 2.17 1.9 3.77v2.5a27.31 27.31 0 0 1 -2.9-4.44 15.49 15.49 0 0 0 -4.12-4.74 7.33 7.33 0 0 0 -3-1.59l-1-.25a14.54 14.54 0 0 0 -1.7 0c-.87 0-1.36.09-1.46.25l-.33 1.16 1.45 1.46a39.69 39.69 0 0 0 15.4 9.25l.05.08 2.91.85a5.66 5.66 0 0 1 2.58 1.11c.4.39.92 1.14 1.65 1.94a6.5 6.5 0 0 1 3.94-1.93 5.24 5.24 0 0 1 1-.26c1-.14 2.41 1.2 4.78 3l.26.26-.81-3.12-.73-3.78a22 22 0 0 1 2.21 1.23 1.68 1.68 0 0 1 .57.88c.05.26.08.36.06.31a1.29 1.29 0 0 0 1 .18l3.42-1-1.12-.52a1.42 1.42 0 0 1 -.7-.84 2.67 2.67 0 0 1 -.06-1.57c.4-1.08.7-1.93 1-2.5a9.9 9.9 0 0 1 1.69-2.2 5.74 5.74 0 0 1 1.82-1.51 28.39 28.39 0 0 1 7.28-2.42c1-.14 2.35-.33 4.28-.54l2.37.9a37 37 0 0 1 -5.29 1.22 15.43 15.43 0 0 0 -5.91 2.25 7.06 7.06 0 0 0 -2.49 2.22l-.52.86a13.81 13.81 0 0 0 -.61 1.5c-.29.79-.39 1.27-.27 1.42l.95.75a17.24 17.24 0 0 0 1.82-.79 42.21 42.21 0 0 0 12.72-9.55c.55-.54 1-1.18 1.5-1.76a52.31 52.31 0 0 0 8.77-15.12l.57-1.61a53.94 53.94 0 0 0 2.43-10v-.14c.42-2.08.84-3.57 1.94-4.42h-.51a34.48 34.48 0 0 1 -4.21-.12l1.24-1.7c.72-.37 1.32.16 1.74-.08a.92.92 0 0 0 .37-.37l-.5-26.47.06-.1q-.15-10.87-.21-21.77zm-62.08 102.99c-2.19-.5-4.81-.75-7.61-1.38a47.47 47.47 0 0 1 4.93 7.25zm24.79 13.53-.31-2.73a12.6 12.6 0 0 1 -2.55 1.28l-.5.19a18 18 0 0 1 3.36 1.26zm24.39-23.1c-1.12 2-2.52 4.12-3.94 6.71a42 42 0 0 1 8.46-2.1zm12.93-85 .06 6.35a38.55 38.55 0 0 1 3.25-4.74 28.94 28.94 0 0 1 1.87 2.89 27.65 27.65 0 0 0 1.8 2.61 16.58 16.58 0 0 1 3.43-7.19z"/></g><path d="m269.25 360.24c15-1.2 23.66 12.12 25.42 14.16 1.17 0 4.92.12 7.85 0 2.23-3.6 5.86-6.24 6.33-7.32 9.25-12.12 39.72-4.44 46.28-6.84a43.21 43.21 0 0 1 7.08.42 36.64 36.64 0 0 0 -4.39-7.9c-3.5.28-8.86.78-10.66 1.12-28.7.6-38.9 9.48-40 10-3.28 2.52-2.34-.36-2.34-1 6.79-5.88 34-17.4 34.79-18.24a25.5 25.5 0 0 0 6-3.45c-1.61-1.1-3.29-2.16-5.06-3.15a24.88 24.88 0 0 0 -4 2.52c-18.52 7.68-33.28 21.72-33.16 19.08.58-8 22.61-21.6 23.78-22.56a22.37 22.37 0 0 0 4-3.44c-2.13-.82-4.33-1.57-6.6-2.23l-2.07 1.95c-1.64.72-16.64 14-17.58 15.24-3.28 3.72-3.75 2.4-3.16.36.58-3.72 11.13-14.76 12.42-16.08a30.53 30.53 0 0 0 2.78-3.33c-1.51-.3-3-.56-4.61-.79-.19.2-.36.37-.52.52-1.52 1.44-9.72 12.36-10.54 13.56-2.11 4-3.28.36-2.58-.72s5.86-9.84 6.45-10.92a19.28 19.28 0 0 0 1.74-3.07c-1.92-.17-3.85-.29-5.81-.35-.23.44-.43.84-.62 1.14-1.17 5.4-3.16 7.92-3.87 6.72 0-1.36-1.46-4.8-2.63-7.81-1.7.08-3.39.19-5.06.35 1.31 3.22 2.69 6.57 3 7.22 5 8.4 3.28 9.24 2.22 8.28-3.79-3.08-8.29-9.57-12-14.62q-2.74.46-5.38 1.07c5.66 6.06 13.14 15.09 14.09 16.07 4.57 4.2 1.06 4.32.12 4-1.8-1.93-13.34-12.11-20.89-18.21-2.24.7-4.4 1.49-6.49 2.35 6.87 5.1 24.18 18.26 27 20.18 3.86 4.2 1.87 6.48.35 5.52-3.87-7-30.46-18.36-32.57-19.32-1.41-.59-2.75-1.21-4-1.79a61.41 61.41 0 0 0 -6 4c3.31 1.48 9.08 3.51 10.9 4.13 26.94 8.88 28 12.72 29.87 14.4 3.05 1.68 1.17 2.4.7 3.12-1.4-1.44-8.2-4.8-11-6.24s-23-3.12-27-3.6c-3.15-.38-9.68-1.36-13.42-1.76a36.63 36.63 0 0 0 -4.16 7.52c5.14.1 32.92.21 35-.26z" fill="#00aeef"/><path d="m352.55 365.52s-22.73 0-26 .24-15.23-1.92-22.26 12.48c-.94 1.2-11.25 1-12.19-.24-2.34-1.92-4.68-15.12-23.43-13h-41.33a30 30 0 0 0 -.73 4.34c10.11-.52 40.85-1.7 49.08-.74 2.11.72 7.5-1 14.53 13h15.7c1.64-1.92 7.73-14.64 16.64-12.24h48.8a29 29 0 0 0 -.6-3.84z" fill="#00aeef"/><path d="m279.75 405.94c1.35 2.29 5.91 3.81.81 27.95-2.15 7.12 4.29 36.35 4.29 44.48 2.24 2.45 3.49 2.2 5.46 2.54 1.17-.25 2.15 1.1 2.5-9.4 0-1.36-1.79-17.37 9.12-18.13 1.52 0 4 1.35 5.19 17-.27.76-3.85 12.29.08 9.91.81-.08 6.53-1.43 4.93-3.55-1.08-1.53.62-6.79 1.24-8.48s4.11-7.11 3.76-8.55-2.86-7.12.63-16.35c1-1.27 3.22-7.87 1.88-10.25-.27-1.27 6-6.95-.1-9-2 .09-3.13.51-3.21 1.27-1.61-1-7.87-7.28-22.45 6.35-.63.68-4.92.34-1.88-10.5.63-1.95 3.94-13.22 4.12-14.24 2 .09 16.19-9.82 12.25-16.43-1.69-1.69-3.4 2.89-4.74 3.31-.8.42-2.87.33-3.13 4.32-1.34 1.77-4.55 1-4.38 3-.45.68-1.79 2.2-2.95 1.87-.81-.26-1.08-2.46-.45-3.06a4.6 4.6 0 0 0 .36-5.08c.09-1.52 3.74-4.92.17-6.95-.35-.84-3.66-3.46-4 .94-.26 3-1.78 6.43-1.79 10.24-.8.26-1.43.93-2 1-4.55-3.96-11.07-4.38-5.71 5.79z" fill="#f58220"/></g></svg>